# xmcd
#
# Track frame offsets:
#	150
#	14825
#	28590
#	41725
#	55290
#	69202
#	82092
#	95175
#	105635
#	118205
#	129530
#	142910
#	154615
#	166465
#	178832
#	190397
#	205170
#	219180
#	232340
#	245712
#	258267
#	269545
#	281865
#	295592
#	307060
#	319082
#	330125
#	341660
#
# Disc length: 4701
#
# Revision: 2
# Processed by: cddbd v1.5.1PL0 Copyright (c) Steve Scherf et al.
# Submitted via: tcd 2.0b
# Normalized: r1:TDELIM( - )
#
DISCID=b3125b1c
DTITLE=Various Artist - Ladies Sing The Blues Disc 1
DYEAR=1900
DGENRE=
TTITLE0=Bedroom Blues - Spippie Wallace
TTITLE1=Buzz Me - Sippie Wallace
TTITLE2=If It's Good - Julia Lee
TTITLE3=Show Me Missouri Blues - Julia Lee
TTITLE4=Dream Lucky Blues - Julia Lee
TTITLE5=Doin' The Woogie Woogie - Mildred Anderson
TTITLE6=Postman Blues - Dinah Washington
TTITLE7=Tell Your Best Frind Nothing - Myra Taylor
TTITLE8=Jet Propelled Papa - Helen Humes
TTITLE9=They Raided The Joint - Helen Humes
TTITLE10=West Side Baby - Dinah Washington
TTITLE11=Early This Morning - Dinah Washington
TTITLE12=I'm In My Sins This Morning - Myra Taylor
TTITLE13=Booted - Myra Taylor
TTITLE14=Walkin' and Talkin' - Dinah Washington
TTITLE15=Resolution Blues - Dinah Washington
TTITLE16=Bowlegged Boogie - Vivian Greene
TTITLE17=He's The Man (He's Tall And Cool) - Vivian Greene
TTITLE18=Red Light - Vivian Greene
TTITLE19=I need You Baby - Alma Mondy
TTITLE20=You Done Me Wrong - Alma Mondy
TTITLE21=Miss Lollipop's Confession - Alma Mondy
TTITLE22=Love Troubles - Alma Mondy
TTITLE23=Baby Get Wise - Alma Mondy
TTITLE24=Streetwalkin' Daddy - Alma Mondy
TTITLE25=Pista 26A Job For A Jockey - Alma Mondy
TTITLE26=Still My Little Angel - Alma Mondy
TTITLE27=No Stuff For Me - Alma Mondy
EXTD=
EXTT0=
EXTT1=
EXTT2=
EXTT3=
EXTT4=
EXTT5=
EXTT6=
EXTT7=
EXTT8=
EXTT9=
EXTT10=
EXTT11=
EXTT12=
EXTT13=
EXTT14=
EXTT15=
EXTT16=
EXTT17=
EXTT18=
EXTT19=
EXTT20=
EXTT21=
EXTT22=
EXTT23=
EXTT24=
EXTT25=
EXTT26=
EXTT27=
PLAYORDER=
